<mxfile host="app.diagrams.net" agent="Mozilla/5.0 (Macintosh; Intel Mac OS X 10_15_7) AppleWebKit/537.36 (KHTML, like Gecko) Chrome/131.0.0.0 Safari/537.36" version="24.7.16">
  <diagram name="ページ1" id="lAMocjxeBpwsvbXQKoRV">
    <mxGraphModel dx="690" dy="436" grid="1" gridSize="10" guides="1" tooltips="1" connect="1" arrows="1" fold="1" page="1" pageScale="1" pageWidth="827" pageHeight="1169" math="0" shadow="0">
      <root>
        <mxCell id="0" />
        <mxCell id="1" parent="0" />
        <mxCell id="lUPhpN2n5mB2_yB1Vpl9-22" value="" style="rounded=0;whiteSpace=wrap;html=1;fillColor=none;strokeColor=#b85450;" vertex="1" parent="1">
          <mxGeometry width="480" height="220" as="geometry" />
        </mxCell>
        <mxCell id="lUPhpN2n5mB2_yB1Vpl9-10" value="" style="rounded=0;whiteSpace=wrap;html=1;fillColor=none;strokeColor=#6c8ebf;" vertex="1" parent="1">
          <mxGeometry x="20" y="90" width="210" height="110" as="geometry" />
        </mxCell>
        <mxCell id="lUPhpN2n5mB2_yB1Vpl9-4" value="" style="shape=image;html=1;verticalAlign=top;verticalLabelPosition=bottom;labelBackgroundColor=#ffffff;imageAspect=0;aspect=fixed;image=https://cdn0.iconfinder.com/data/icons/eon-social-media-contact-info-2/32/user_people_person_users_man-128.png" vertex="1" parent="1">
          <mxGeometry x="30" y="142" width="48" height="48" as="geometry" />
        </mxCell>
        <mxCell id="lUPhpN2n5mB2_yB1Vpl9-5" value="" style="shape=image;html=1;verticalAlign=top;verticalLabelPosition=bottom;labelBackgroundColor=#ffffff;imageAspect=0;aspect=fixed;image=https://cdn0.iconfinder.com/data/icons/eon-social-media-contact-info-2/32/user_people_person_users_man-128.png" vertex="1" parent="1">
          <mxGeometry x="70" y="152" width="48" height="48" as="geometry" />
        </mxCell>
        <mxCell id="lUPhpN2n5mB2_yB1Vpl9-6" value="" style="shape=image;html=1;verticalAlign=top;verticalLabelPosition=bottom;labelBackgroundColor=#ffffff;imageAspect=0;aspect=fixed;image=https://cdn0.iconfinder.com/data/icons/eon-social-media-contact-info-2/32/user_people_person_users_man-128.png" vertex="1" parent="1">
          <mxGeometry x="110" y="142" width="48" height="48" as="geometry" />
        </mxCell>
        <mxCell id="lUPhpN2n5mB2_yB1Vpl9-7" value="" style="shape=image;html=1;verticalAlign=top;verticalLabelPosition=bottom;labelBackgroundColor=#ffffff;imageAspect=0;aspect=fixed;image=https://cdn0.iconfinder.com/data/icons/eon-social-media-contact-info-2/32/user_people_person_users_man-128.png" vertex="1" parent="1">
          <mxGeometry x="70" y="94" width="48" height="48" as="geometry" />
        </mxCell>
        <mxCell id="lUPhpN2n5mB2_yB1Vpl9-8" value="" style="shape=image;html=1;verticalAlign=top;verticalLabelPosition=bottom;labelBackgroundColor=#ffffff;imageAspect=0;aspect=fixed;image=https://cdn0.iconfinder.com/data/icons/eon-social-media-contact-info-2/32/user_people_person_users_man-128.png;imageBackground=none;imageBorder=none;" vertex="1" parent="1">
          <mxGeometry x="210" y="20" width="48" height="48" as="geometry" />
        </mxCell>
        <mxCell id="lUPhpN2n5mB2_yB1Vpl9-12" value="iOS&lt;br&gt;&lt;span style=&quot;background-color: initial;&quot;&gt;リード&lt;/span&gt;" style="text;html=1;align=center;verticalAlign=middle;whiteSpace=wrap;rounded=0;" vertex="1" parent="1">
          <mxGeometry x="110" y="97.5" width="70" height="41" as="geometry" />
        </mxCell>
        <mxCell id="lUPhpN2n5mB2_yB1Vpl9-13" value="iOS&lt;br&gt;メンバー" style="text;html=1;align=center;verticalAlign=middle;whiteSpace=wrap;rounded=0;" vertex="1" parent="1">
          <mxGeometry x="147" y="146.5" width="83" height="39" as="geometry" />
        </mxCell>
        <mxCell id="lUPhpN2n5mB2_yB1Vpl9-14" value="" style="rounded=0;whiteSpace=wrap;html=1;fillColor=none;strokeColor=#82b366;" vertex="1" parent="1">
          <mxGeometry x="250" y="90" width="210" height="110" as="geometry" />
        </mxCell>
        <mxCell id="lUPhpN2n5mB2_yB1Vpl9-15" value="" style="shape=image;html=1;verticalAlign=top;verticalLabelPosition=bottom;labelBackgroundColor=#ffffff;imageAspect=0;aspect=fixed;image=https://cdn0.iconfinder.com/data/icons/eon-social-media-contact-info-2/32/user_people_person_users_man-128.png" vertex="1" parent="1">
          <mxGeometry x="260" y="142" width="48" height="48" as="geometry" />
        </mxCell>
        <mxCell id="lUPhpN2n5mB2_yB1Vpl9-16" value="" style="shape=image;html=1;verticalAlign=top;verticalLabelPosition=bottom;labelBackgroundColor=#ffffff;imageAspect=0;aspect=fixed;image=https://cdn0.iconfinder.com/data/icons/eon-social-media-contact-info-2/32/user_people_person_users_man-128.png" vertex="1" parent="1">
          <mxGeometry x="300" y="152" width="48" height="48" as="geometry" />
        </mxCell>
        <mxCell id="lUPhpN2n5mB2_yB1Vpl9-17" value="" style="shape=image;html=1;verticalAlign=top;verticalLabelPosition=bottom;labelBackgroundColor=#ffffff;imageAspect=0;aspect=fixed;image=https://cdn0.iconfinder.com/data/icons/eon-social-media-contact-info-2/32/user_people_person_users_man-128.png" vertex="1" parent="1">
          <mxGeometry x="340" y="142" width="48" height="48" as="geometry" />
        </mxCell>
        <mxCell id="lUPhpN2n5mB2_yB1Vpl9-18" value="" style="shape=image;html=1;verticalAlign=top;verticalLabelPosition=bottom;labelBackgroundColor=#ffffff;imageAspect=0;aspect=fixed;image=https://cdn0.iconfinder.com/data/icons/eon-social-media-contact-info-2/32/user_people_person_users_man-128.png" vertex="1" parent="1">
          <mxGeometry x="300" y="94" width="48" height="48" as="geometry" />
        </mxCell>
        <mxCell id="lUPhpN2n5mB2_yB1Vpl9-19" value="Android&lt;br&gt;リード" style="text;html=1;align=center;verticalAlign=middle;whiteSpace=wrap;rounded=0;" vertex="1" parent="1">
          <mxGeometry x="340" y="97.5" width="70" height="41" as="geometry" />
        </mxCell>
        <mxCell id="lUPhpN2n5mB2_yB1Vpl9-20" value="Android&lt;br&gt;メンバー" style="text;html=1;align=center;verticalAlign=middle;whiteSpace=wrap;rounded=0;" vertex="1" parent="1">
          <mxGeometry x="377" y="146.5" width="83" height="39" as="geometry" />
        </mxCell>
        <mxCell id="lUPhpN2n5mB2_yB1Vpl9-21" value="モバイル&lt;br&gt;&lt;span style=&quot;background-color: initial;&quot;&gt;リード&lt;/span&gt;" style="text;html=1;align=center;verticalAlign=middle;whiteSpace=wrap;rounded=0;" vertex="1" parent="1">
          <mxGeometry x="250" y="23.5" width="70" height="41" as="geometry" />
        </mxCell>
        <mxCell id="lUPhpN2n5mB2_yB1Vpl9-23" value="" style="shape=flexArrow;endArrow=classic;html=1;rounded=0;fillColor=#f5f5f5;strokeColor=#666666;" edge="1" parent="1">
          <mxGeometry width="50" height="50" relative="1" as="geometry">
            <mxPoint x="158" y="43.72" as="sourcePoint" />
            <mxPoint x="208" y="43.72" as="targetPoint" />
          </mxGeometry>
        </mxCell>
      </root>
    </mxGraphModel>
  </diagram>
</mxfile>
